<?xml version="1.0" encoding="UTF-8"?><svg id="Layer_2" xmlns="http://www.w3.org/2000/svg" viewBox="0 0 481 508"><rect width="481" height="508"/><rect x="24.86" y="22.61" width="430.09" height="462" fill="#fff"/><rect x="47.36" y="45.86" width="383" height="414"/><rect x="60.36" y="119.86" width="356.5" height="11" fill="#fff"/><rect x="60.36" y="371.36" width="356.5" height="11" fill="#fff"/><g><path d="M213.71,71.61c.07-.06,.25-.3,.56-.75,.2-.29,.46-.43,.8-.43,.08,0,.39,.04,.93,.12,.11,.11,.19,.34,.25,.7l.9,5.63c.04,.3,.07,.48,.07,.53,0,.21-.06,.35-.17,.42s-.42,.1-.92,.1c-.56,0-.93-.07-1.1-.22-.17-.14-.48-.74-.95-1.79-.98-2.22-1.86-3.34-2.64-3.34-.55,0-.83,.39-.83,1.16,0,.96,.83,2.86,2.51,5.68,1.92,3.25,3.16,5.61,3.74,7.06,.58,1.46,.87,3.09,.87,4.89,0,2.14-.5,3.77-1.51,4.91s-2.14,1.71-3.4,1.71c-.8,0-1.57-.23-2.31-.68-.29-.18-.52-.27-.68-.27-.14,0-.26,.1-.35,.32-.18,.42-.61,.63-1.3,.63-.27,0-.45-.04-.54-.12s-.16-.3-.21-.66l-.83-5.53c-.11-.71-.17-1.08-.17-1.13,0-.32,.29-.48,.88-.48,.8,0,1.27,.1,1.41,.32s.35,.69,.61,1.44c.97,2.69,1.95,4.03,2.94,4.03,.36,0,.66-.13,.89-.4,.23-.27,.34-.6,.34-1,0-.7-.25-1.52-.76-2.48-.5-.96-1.12-2.02-1.85-3.2-1.75-2.81-2.99-5.06-3.71-6.73-.73-1.68-1.09-3.39-1.09-5.14,0-1.97,.43-3.54,1.3-4.72,.86-1.17,1.92-1.76,3.17-1.76,.87,0,1.91,.39,3.14,1.17Z" fill="#fff"/><path d="M218.97,76.66v-1.1c0-.36,.22-.55,.66-.55h5.3c.38,0,.56,.18,.56,.55v19.09c0,.27,.02,.44,.05,.51,.03,.08,.13,.15,.29,.22,.39,.15,.59,.5,.59,1.03,0,.61-.03,.97-.08,1.1s-.23,.18-.53,.18h-6.43c-.15-.02-.25-.09-.3-.21-.04-.12-.07-.42-.07-.92,0-.6,.14-.95,.43-1.05,.35-.12,.53-.34,.53-.66v-16.55c0-.64-.24-1.03-.71-1.16-.2-.05-.3-.22-.3-.48Zm4.65-6.36c1.25,0,1.88,.42,1.88,1.26,0,.66-.42,1.23-1.25,1.68-.84,.46-1.79,.69-2.85,.69-1.37,0-2.06-.46-2.06-1.38,0-.73,.48-1.29,1.44-1.68,.96-.39,1.91-.58,2.84-.58Z" fill="#fff"/><path d="M236.53,76.53v-2.9c0-.49-.2-.75-.6-.78-.21-.01-.35-.06-.42-.16-.07-.09-.1-.29-.1-.57v-.65c0-.25,.04-.41,.11-.47s.24-.09,.51-.09h5.3c.3,0,.49,.05,.57,.15s.12,.33,.12,.68v23.08c0,.49,.25,.81,.76,.98,.27,.08,.4,.25,.4,.51v.85c0,.37-.16,.55-.48,.55h-5.79c-.19,0-.3-.04-.34-.11-.04-.07-.06-.37-.06-.89,0-.1,0-.25,.02-.45-1.21,1.12-2.33,1.68-3.37,1.68-3.51,0-5.26-3.58-5.26-10.74,0-5.09,.47-8.43,1.4-10.02,.93-1.59,2.15-2.38,3.66-2.38,1.15,0,2.34,.58,3.57,1.74Zm0,1.88c-.51-.31-.92-.46-1.24-.46-.36,0-.66,.17-.89,.52-.23,.35-.34,.74-.34,1.17v13.71c0,.41,.11,.76,.32,1.04,.21,.28,.48,.42,.8,.42,.3,0,.6-.13,.9-.39,.3-.26,.46-.51,.46-.74v-15.27h0Z" fill="#fff"/><path d="M250.68,86.02v6.79c0,.9,.17,1.6,.52,2.11,.35,.51,.79,.76,1.34,.76,.84,0,1.51-.36,2.02-1.07s.77-1.69,.8-2.93c.01-.66,.08-1.06,.19-1.2s.52-.2,1.2-.2c.6,0,.98,.06,1.14,.18,.16,.12,.24,.43,.24,.91,0,1.71-.55,3.22-1.66,4.55-1.11,1.33-2.57,1.99-4.4,1.99-2.09,0-3.87-.95-5.33-2.85s-2.19-4.76-2.19-8.57,.67-6.73,2.02-8.72c1.35-2,3.12-3,5.31-3,1.88,0,3.39,.84,4.53,2.52,1.14,1.68,1.71,4.07,1.71,7.17v1.54h-7.46Zm2.24-2.08v-5.5c0-1.04-.37-1.56-1.11-1.56s-1.13,.52-1.13,1.56v5.5h2.24Z" fill="#fff"/><path d="M266.07,77.27c1.32-1.66,2.82-2.49,4.52-2.49,1.16,0,2.04,.37,2.65,1.12,.61,.75,.92,1.68,.92,2.81v15.9c0,.35,.14,.62,.42,.81,.25,.15,.38,.55,.38,1.2,0,.51-.04,.81-.12,.91s-.26,.15-.52,.15h-4.67c-.66-.56-1-1.3-1-2.21v-15.79c0-.86-.35-1.29-1.06-1.29-.46,0-.97,.24-1.51,.73v15.49c0,.4,.19,.71,.58,.93,.23,.13,.35,.38,.35,.73v.85c0,.38-.27,.56-.81,.56h-5.89c-.29,0-.47-.04-.55-.12-.08-.08-.11-.29-.11-.62v-.61c0-.32,.1-.55,.3-.68,.27-.19,.44-.37,.51-.53,.08-.17,.12-.53,.12-1.1v-16.24c0-.39-.19-.67-.56-.85-.21-.1-.32-.28-.32-.53v-.88c0-.34,.15-.51,.46-.51h5.41c.23,0,.38,.03,.43,.1,.06,.07,.08,.21,.08,.42v1.75h0Z" fill="#fff"/></g><g><path d="M215.1,431.27h7.73c.35,0,.62-.13,.83-.39s.37-.75,.52-1.48c.06-.3,.16-.5,.29-.59s.42-.15,.85-.15c.64,0,.96,.14,.96,.42,0,.09-.02,.2-.05,.32-.05,.28-.16,.94-.32,1.99-.19,1.14-.37,2.14-.55,2.99s-.31,1.31-.4,1.4c-.09,.08-.33,.12-.72,.12h-12.18v-3.61c0-.51,.43-1.14,1.3-1.92,.43-.39,1.43-1.57,3-3.54,1.57-1.97,2.59-3.57,3.05-4.82,.46-1.24,.7-2.91,.7-4.99,0-1.74-.17-2.86-.5-3.36-.33-.5-.82-.75-1.44-.75-.47,0-.84,.13-1.11,.4s-.4,.62-.4,1.05c0,.25,.03,.55,.08,.9,.06,.46,.09,.91,.09,1.34,0,.94-.21,1.66-.64,2.18s-.97,.77-1.63,.77c-.7,0-1.26-.28-1.67-.83s-.62-1.23-.62-2.01c0-1.63,.61-3.01,1.82-4.15,1.21-1.14,2.84-1.71,4.88-1.71s3.77,.65,5.1,1.96c1.33,1.31,2,3,2,5.08,0,1.15-.24,2.26-.71,3.31-.47,1.06-1.12,1.99-1.94,2.81-.82,.82-2.02,1.85-3.59,3.08-2.16,1.68-3.74,3.06-4.73,4.15Z" fill="#fff"/><path d="M234.66,410.87c1.32,0,2.53,.54,3.64,1.61,1.11,1.07,1.95,2.52,2.5,4.36,.56,1.84,.83,4.02,.83,6.54,0,4.2-.7,7.38-2.09,9.54-1.39,2.16-3.09,3.24-5.09,3.24-1.89,0-3.52-1.03-4.89-3.09-1.37-2.06-2.05-5.21-2.05-9.45s.68-7.4,2.03-9.54c1.35-2.14,3.06-3.21,5.12-3.21Zm.97,3.95c0-.73-.08-1.24-.26-1.52s-.45-.42-.84-.42c-.76,0-1.14,.65-1.14,1.95v17.88c0,1.01,.36,1.51,1.08,1.51,.35,0,.63-.15,.84-.45,.21-.3,.32-.65,.32-1.07v-17.88Z" fill="#fff"/><path d="M245.54,417.62c-.93,.32-1.71,.48-2.36,.48-.32,0-.48-.17-.48-.52v-.62c0-.24,.05-.41,.14-.53,.09-.12,.32-.25,.69-.39,.49-.2,1.17-.62,2.02-1.25s1.69-1.47,2.5-2.52c.63-.81,1-1.25,1.11-1.32,.11-.07,.31-.1,.59-.1h1.28v22.34c0,.23,.17,.43,.52,.6,.3,.14,.48,.3,.55,.45,.07,.16,.1,.58,.1,1.26,0,.27-.18,.4-.54,.4h-7.07c-.3,0-.48-.05-.55-.14-.07-.09-.1-.32-.1-.68,0-.52,.03-.83,.08-.96,.06-.12,.27-.24,.64-.36,.58-.17,.86-.43,.86-.76v-15.39h0Z" fill="#fff"/><path d="M256.92,411.24h7.41c.32,0,.55-.08,.69-.23,.17-.18,.31-.3,.39-.33,.09-.04,.27-.05,.55-.05,.42,0,.69,.03,.8,.1,.11,.07,.17,.2,.17,.39,0,.04-.02,.23-.05,.56l-.28,3.3c-.03,.32-.08,.52-.16,.6s-.27,.12-.56,.12h-7.26l-.26,4.76c1.01-.68,2.14-1.02,3.38-1.02,2.04,0,3.71,.76,5,2.29s1.95,3.47,1.95,5.84c0,2.56-.75,4.64-2.25,6.22-1.5,1.58-3.36,2.38-5.58,2.38-1.84,0-3.26-.58-4.26-1.74-1-1.16-1.5-2.38-1.5-3.64,0-.72,.19-1.35,.57-1.89,.38-.54,.93-.81,1.64-.81,.63,0,1.13,.21,1.5,.63,.37,.42,.56,.99,.56,1.71,0,.33-.04,.67-.12,1.03-.13,.61-.2,1-.2,1.19,0,.35,.14,.69,.41,1.02,.27,.33,.69,.49,1.24,.49,.48,0,.89-.13,1.22-.38,.33-.25,.55-.61,.65-1.07,.1-.46,.15-1.39,.15-2.79l-.03-2.76c0-2.11-.16-3.56-.48-4.34s-.87-1.17-1.65-1.17c-1.1,0-1.87,.7-2.32,2.11-.1,.33-.21,.54-.32,.63-.11,.09-.3,.14-.56,.15l-.7,.03c-.37,0-.56-.15-.56-.45,0-.09,0-.23,.02-.42l.79-12.46Z" fill="#fff"/></g><g><path d="M95.57,191.26c5.12,1.79,8.65,4.01,10.58,6.66,1.93,2.65,2.9,6.29,2.9,10.94,0,7.08-1.78,12.36-5.33,15.83-3.56,3.47-9.06,5.21-16.5,5.21h-20.53c-.84,0-1.26-.43-1.26-1.3v-2.52c0-.7,.38-1.22,1.13-1.55,1.6-.76,2.39-1.86,2.39-3.32v-50.68c0-.7-.11-1.18-.34-1.43-.22-.25-.9-.64-2.02-1.18-.56-.25-.89-.53-.99-.84-.1-.31-.15-1.06-.15-2.27,0-1.06,.15-1.78,.44-2.14,.29-.36,.8-.55,1.53-.55h23.01c5.54,0,9.8,1.41,12.77,4.24,2.97,2.83,4.45,6.43,4.45,10.79,0,3.64-1.17,6.69-3.51,9.15-2.34,2.47-5.2,4.12-8.59,4.96Zm-11-24.4v22.05h2.23c1.4,0,2.5-.4,3.3-1.22,.8-.81,1.26-2.16,1.39-4.05,.13-1.89,.19-4.28,.19-7.16,0-4.03-.38-6.64-1.15-7.83-.77-1.19-2.01-1.78-3.72-1.78h-2.23Zm0,26.83v31.37c2.57,0,4.3-.35,5.19-1.05,.88-.7,1.4-2.08,1.55-4.16,.15-2.07,.23-5.57,.23-10.5,0-1.01-.04-3.3-.13-6.87-.08-3.57-.25-5.72-.5-6.45-.25-.73-.69-1.3-1.32-1.72s-1.56-.63-2.79-.63h-2.23Z" fill="#fff"/><path d="M132.47,215.41h-10.47l-.49,3.86c0,.08-.03,.21-.09,.38-.24,.81-.35,1.54-.35,2.18,0,1.01,.65,1.86,1.96,2.56,.7,.36,1.13,.74,1.29,1.13,.17,.39,.25,1.04,.25,1.93,0,1.15-.06,1.84-.19,2.08-.13,.24-.43,.36-.9,.36h-11.05c-.61,0-.92-.64-.92-1.93,0-1.54,.49-2.79,1.47-3.74,.92-.87,1.46-1.79,1.6-2.77l7.78-49.42c.14-.76,.21-1.41,.21-1.97,0-.87-.6-1.64-1.81-2.31-.56-.34-.84-1.08-.84-2.23,0-1.54,.08-2.49,.25-2.85s.62-.55,1.34-.55h16.04c.98,0,1.66,.46,2.06,1.39s.78,2.94,1.18,6.05c.17,1.2,.34,2.39,.51,3.57l6.89,46.15c.34,2.24,1.16,3.95,2.48,5.12,.36,.31,.6,.55,.71,.73,.11,.18,.17,.73,.17,1.66,0,1.43-.1,2.3-.29,2.62-.2,.32-.62,.48-1.26,.48h-18.65c-.56,0-.84-.53-.84-1.6,0-1.34,.07-2.18,.21-2.52s.54-.73,1.21-1.18c.97-.62,1.46-1.4,1.46-2.36,0-.98-.31-3.26-.91-6.84Zm-5.03-37.65l-4.74,32.82h9.34l-4.59-32.82Z" fill="#fff"/><path d="M183.58,225.79c-2.52,3.24-5.63,4.86-9.32,4.86-5.77,0-10.48-3.39-14.15-10.16-3.67-6.77-5.5-14.81-5.5-24.1,0-10.52,2.07-19.06,6.21-25.59,4.14-6.54,9.04-9.81,14.7-9.81,2.71,0,5.12,.7,7.22,2.1,.67,.42,1.19,.63,1.55,.63,.5,0,.94-.48,1.3-1.43,.34-.87,.92-1.3,1.76-1.3h.5l1.34,.08c.9,.14,1.46,.77,1.68,1.89l2.69,13.35c.28,1.37,.42,2.3,.42,2.77,0,.98-.74,1.47-2.23,1.47s-2.39-.21-2.81-.63-1.26-1.89-2.52-4.41c-1.68-3.41-3.16-5.79-4.43-7.12-1.27-1.33-2.64-1.99-4.09-1.99-3.84,0-5.75,3.05-5.75,9.15v45.1c0,3.3,1.05,4.95,3.15,4.95,2.29,0,3.44-1.65,3.44-4.95v-21.93c0-1.43-.49-2.35-1.47-2.77-1.06-.45-1.6-1.37-1.6-2.75,0-1.49,.14-2.39,.42-2.69,.28-.3,.88-.44,1.81-.44h17.76c.87,0,1.45,.15,1.74,.46,.29,.31,.44,1.02,.44,2.12,0,1.16-.09,1.93-.27,2.33-.18,.4-.62,.72-1.32,.97-1.01,.36-1.51,1.13-1.51,2.31v28.52c0,1.71-.11,2.77-.34,3.21-.23,.43-.81,.65-1.76,.65-.87,0-1.49-.06-1.87-.19s-.9-.51-1.57-1.15c-1.88-1.82-3.75-2.99-5.63-3.52Z" fill="#fff"/><path d="M219.78,163.93c.17-.14,.64-.77,1.43-1.89,.5-.73,1.18-1.09,2.02-1.09,.2,0,.98,.1,2.35,.29,.28,.28,.49,.87,.63,1.76l2.27,14.24c.11,.76,.17,1.2,.17,1.34,0,.53-.15,.88-.44,1.05s-1.07,.25-2.33,.25c-1.43,0-2.35-.18-2.77-.55-.42-.36-1.22-1.88-2.39-4.54-2.49-5.63-4.72-8.44-6.68-8.44-1.4,0-2.1,.98-2.1,2.94,0,2.44,2.11,7.22,6.34,14.36,4.84,8.23,8,14.19,9.47,17.87,1.47,3.68,2.2,7.8,2.2,12.37,0,5.4-1.27,9.55-3.82,12.43-2.55,2.88-5.42,4.33-8.61,4.33-2.02,0-3.96-.57-5.84-1.72-.73-.45-1.3-.67-1.72-.67-.36,0-.66,.27-.88,.8-.45,1.06-1.54,1.6-3.27,1.6-.67,0-1.13-.11-1.36-.31-.24-.21-.41-.76-.52-1.66l-2.1-13.98c-.28-1.79-.42-2.74-.42-2.85,0-.81,.74-1.22,2.23-1.22,2.02,0,3.2,.27,3.57,.8,.36,.53,.88,1.75,1.55,3.65,2.46,6.8,4.94,10.2,7.43,10.2,.92,0,1.67-.34,2.25-1.01,.57-.67,.86-1.51,.86-2.52,0-1.76-.64-3.86-1.91-6.28-1.27-2.42-2.83-5.12-4.68-8.08-4.42-7.11-7.55-12.79-9.39-17.03-1.83-4.24-2.75-8.57-2.75-13,0-4.98,1.09-8.96,3.27-11.93,2.18-2.97,4.86-4.45,8.02-4.45,2.18,0,4.83,.98,7.93,2.94Z" fill="#fff"/><path d="M256.23,203.51l6.46-32.43c.06-.28,.08-.57,.08-.88,0-1.12-.71-2.02-2.14-2.7-.9-.44-1.34-.88-1.34-1.29,0-.19,.01-.39,.04-.58v-.67c0-1.25,.06-2.03,.19-2.35,.13-.32,.47-.48,1.03-.48h10.39c.48,0,.76,.13,.86,.4,.1,.26,.15,.95,.15,2.06,0,1.31-.03,2.11-.08,2.42-.06,.31-.25,.56-.59,.75-.84,.56-1.37,1.04-1.6,1.45-.23,.41-.5,1.44-.84,3.09l-10.94,54.58-.67,3.32c-.06,.31-.35,.46-.88,.46h-8.44c-.36,0-.64-.17-.84-.5-.2-.34-.48-1.43-.84-3.28l-10.95-55.8c-.25-1.4-.92-2.42-2.02-3.07-.56-.33-.9-.59-1.03-.77s-.19-.56-.19-1.15c0-.19,.01-.39,.04-.58,.03-.31,.04-.6,.04-.88,0-.19-.02-.38-.04-.54v-.58c0-.92,.34-1.38,1.01-1.38h19.09c.64,0,.97,.58,.97,1.75,0,.03-.03,.83-.08,2.42-.06,.36-.35,.67-.88,.92-1.23,.59-1.85,1.52-1.85,2.81,0,.31,.04,.66,.12,1.05l5.77,32.45Z" fill="#fff"/><path d="M307.79,166.95v24.15h2.48c.87,0,1.52-.31,1.97-.92,.45-.62,.85-1.75,1.22-3.4,.25-1.01,.54-1.67,.86-1.99,.32-.32,.86-.48,1.62-.48,.14,0,.28,.01,.42,.04l1.6,.04c.48,.14,.71,.36,.71,.67,0,.03-.02,.23-.04,.59v15.37c0,.84-.11,1.36-.34,1.55-.23,.2-.78,.29-1.68,.29-1.18,0-1.91-.1-2.2-.29-.3-.2-.55-.74-.78-1.64-.87-3.47-1.9-5.21-3.11-5.21h-2.73v29.69h1.05c1.82,0,3.03-.32,3.63-.97,.6-.64,1.15-1.92,1.66-3.82,.92-3.5,1.64-5.56,2.14-6.19,.5-.63,1.33-.94,2.48-.94,1.29,0,2.08,.08,2.37,.23,.29,.15,.44,.47,.44,.94,0,.17-.04,.5-.13,1.01l-1.73,12.3c-.11,.84-.25,1.37-.43,1.6-.18,.23-.65,.34-1.41,.34h-27.8c-.87,0-1.3-.44-1.3-1.31v-1.86c0-1.3,.4-2.11,1.22-2.45,1.43-.61,2.14-1.42,2.14-2.42v-6.18h-8.05l-.9,3.94c-.03,.22-.09,.45-.17,.67-.25,.86-.38,1.55-.38,2.08,0,.58,.42,1.14,1.27,1.66,.96,.65,1.44,1.27,1.44,1.86v3.43c0,.39-.28,.59-.84,.59h-10.12c-.62,0-.92-.41-.92-1.23,0-.11,.03-1.18,.08-3.21,.14-.54,.6-1.02,1.39-1.44,.64-.33,1.1-.75,1.36-1.25,.27-.5,.54-1.41,.82-2.74l9.63-47.83c.14-.64,.21-1.26,.21-1.85,0-1.04-.41-1.86-1.23-2.48-.88-.67-1.31-2.13-1.31-4.37,0-.64,.08-1.04,.23-1.18,.15-.14,.47-.21,.95-.21h32.29c.53,0,.91,.6,1.13,1.81l1.93,10.83c.11,.53,.17,.97,.17,1.3,0,.62-.63,.92-1.89,.92-1.54,0-2.5-.16-2.88-.48-.38-.32-.95-1.51-1.7-3.55-.98-2.63-1.79-4.29-2.41-4.98-.63-.69-1.28-1.03-1.95-1.03h-2.48Zm-15.66,6.76l-7.28,37.12h7.28v-37.12h0Z" fill="#fff"/><path d="M344.03,200.08v20.83c0,.98,.06,1.64,.19,1.97,.12,.34,.48,.69,1.05,1.05,.74,.48,1.11,1.27,1.11,2.39,0,1.62-.15,2.62-.44,3-.29,.38-.83,.57-1.61,.57h-17.73c-1.01,0-1.51-.73-1.51-2.18s.04-2.3,.13-2.71c.08-.4,.36-.69,.84-.86,1.54-.62,2.31-1.82,2.31-3.61v-49.21c0-1.82-.67-2.93-2.02-3.32-.67-.22-1.09-.44-1.26-.67-.17-.22-.25-.88-.25-1.96,0-2.17,.59-3.25,1.76-3.25h23.22c4.62,0,8.74,1.74,12.37,5.21,3.62,3.47,5.44,8.13,5.44,13.98,0,8.31-4.24,13.75-12.72,16.29,7.75,1.71,11.63,6.62,11.63,14.74v9.99c0,.84,.32,1.47,.97,1.89,.76,.5,1.13,1.27,1.13,2.31,0,1.62-.1,2.59-.29,2.9-.2,.31-.71,.46-1.55,.46h-11.25c-1.34,0-2.45-.76-3.32-2.29-.87-1.52-1.3-3.41-1.3-5.65v-16.92c0-3.3-1.67-4.96-5-4.96h-1.89Zm0-33.17v28.3h2.73c2.77,0,4.16-2.79,4.16-8.36v-13.52c0-2.35-.44-4.01-1.32-4.98-.88-.97-2.26-1.45-4.14-1.45h-1.43Z" fill="#fff"/><path d="M374.39,220.58v-50.85c-.08-.56-.59-.98-1.51-1.26-.73-.22-1.22-.55-1.47-.99s-.38-1.36-.38-2.79c0-1.04,.18-1.72,.55-2.06,.36-.34,1.3-.5,2.81-.5h20.11c5.74,0,10.49,2.65,14.26,7.94,3.77,5.29,5.65,14.08,5.65,26.37,0,11.2-1.82,19.58-5.46,25.13-3.64,5.56-8.45,8.34-14.45,8.34h-22.17c-.62,0-1.04-.15-1.28-.44-.24-.29-.36-.94-.36-1.95,0-1.2,.04-1.96,.13-2.27,.08-.31,.49-.66,1.22-1.05,1.57-.81,2.35-2.01,2.35-3.61Zm15.62-53.46v58.16h2.23c1.57,0,2.71-.65,3.44-1.95,.73-1.3,1.09-3.62,1.09-6.95v-42.92c0-1.88-.45-3.4-1.34-4.58s-2.17-1.76-3.82-1.76h-1.6Z" fill="#fff"/></g><g><path d="M89.62,337.22h3.12c1.6,0,2.79-.64,3.55-1.91,.77-1.27,1.77-4.23,3.01-8.86,.44-1.79,.97-2.87,1.59-3.25s1.68-.57,3.17-.57c1.64,0,2.7,.14,3.17,.41s.71,.77,.71,1.5c0,.51-.09,1.33-.27,2.46l-1.91,13.07c-.22,1.35-.5,2.24-.85,2.68s-1.05,.66-2.1,.66h-35.98c-1.53,0-2.3-.95-2.3-2.84,0-1.46,.1-2.4,.3-2.82,.2-.42,.63-.74,1.29-.96,2.08-.66,3.12-2.57,3.12-5.74v-64.97c0-1.35-.66-2.31-1.97-2.9-1.13-.47-1.82-1-2.08-1.59-.25-.58-.38-1.55-.38-2.9,0-1.6,.11-2.6,.33-2.98s.8-.57,1.75-.57h25.21c.95,0,1.6,.23,1.94,.68,.35,.46,.52,1.69,.52,3.69,0,1.2-.12,2.02-.35,2.43-.24,.42-.85,.79-1.83,1.12-1.82,.62-2.73,1.82-2.73,3.61v70.55h0Z" fill="#fff"/><path d="M136.48,324.53h-13.63l-.63,5.03c0,.11-.04,.27-.11,.49-.31,1.06-.46,2.01-.46,2.84,0,1.31,.85,2.43,2.56,3.34,.91,.48,1.47,.97,1.69,1.48,.22,.51,.33,1.35,.33,2.52,0,1.49-.08,2.4-.24,2.71-.16,.31-.55,.46-1.17,.46h-14.39c-.8,0-1.2-.84-1.2-2.52,0-2.01,.64-3.63,1.91-4.87,1.2-1.13,1.9-2.33,2.08-3.61l10.13-64.36c.18-.98,.27-1.84,.27-2.57,0-1.13-.79-2.13-2.36-3.01-.73-.44-1.1-1.4-1.1-2.9,0-2.01,.11-3.25,.33-3.72,.22-.48,.8-.71,1.75-.71h20.88c1.27,0,2.17,.6,2.68,1.8s1.02,3.83,1.53,7.88c.22,1.57,.44,3.12,.66,4.65l8.98,60.1c.44,2.92,1.51,5.14,3.23,6.67,.47,.4,.78,.72,.93,.96,.15,.24,.22,.96,.22,2.16,0,1.86-.13,3-.38,3.42-.26,.42-.8,.63-1.64,.63h-24.29c-.73,0-1.09-.69-1.09-2.08,0-1.75,.09-2.84,.27-3.28,.18-.44,.71-.95,1.58-1.53,1.27-.8,1.9-1.83,1.9-3.07,0-1.28-.4-4.25-1.19-8.91Zm-6.54-49.03l-6.18,42.74h12.16l-5.98-42.74Z" fill="#fff"/><path d="M202.88,279.92l14.17,52.26c.47,1.79,1.39,3.01,2.73,3.67,.88,.44,1.31,1.42,1.31,2.95,0,.18-.05,1.28-.16,3.28-.11,.88-.88,1.31-2.3,1.31h-21.77c-.8,0-1.33-.15-1.59-.44-.26-.29-.38-1.09-.38-2.41,0-.22,.04-1.17,.11-2.84,.11-.66,.55-1.13,1.31-1.42,1.17-.4,1.75-1.08,1.75-2.02,0-.26-.04-.57-.11-.93l-7.66-27.6-1.85,4.12v22.33c0,1.86,.82,3.29,2.46,4.27,.69,.4,1.04,1.31,1.04,2.73,0,1.68-.15,2.8-.44,3.36-.29,.57-1,.85-2.13,.85h-22.91c-.84,0-1.42-.17-1.75-.52-.33-.35-.49-1.33-.49-2.95s.13-2.64,.38-3.06c.26-.42,.75-.8,1.48-1.13,1.35-.55,2.02-1.53,2.02-2.95v-65.63c0-1.64-.66-2.86-1.97-3.66-.88-.55-1.4-.99-1.59-1.34-.18-.35-.27-1.07-.27-2.16,0-2.48,.09-3.91,.27-4.29,.18-.38,.71-.57,1.59-.57h24.94c1.17,0,1.75,.48,1.75,1.42,0,2.95-.05,4.66-.16,5.11-.11,.46-.64,.96-1.59,1.5-1.75,.91-2.62,2.08-2.62,3.5v28.02l11.88-27.1c.66-1.47,.98-2.59,.98-3.34,0-.47-.44-1.02-1.32-1.67-.95-.66-1.53-1.22-1.73-1.7-.2-.47-.3-1.68-.3-3.61,0-1.42,.53-2.13,1.59-2.13h14.54c.84,0,1.35,.16,1.54,.49,.18,.33,.27,1.27,.27,2.82,0,1.67-.12,2.68-.36,3.04-.24,.36-.98,.8-2.21,1.3-.95,.36-1.55,.66-1.8,.88s-.57,.69-.93,1.42l-7.71,14.84Z" fill="#fff"/><path d="M248.76,304.57v27.12c0,1.28,.08,2.13,.24,2.57,.16,.44,.62,.89,1.37,1.37,.97,.62,1.45,1.66,1.45,3.12,0,2.11-.19,3.42-.57,3.91s-1.08,.74-2.1,.74h-23.09c-1.31,0-1.96-.95-1.96-2.84s.05-3,.16-3.53c.11-.53,.47-.9,1.09-1.12,2.01-.8,3.01-2.37,3.01-4.71v-64.09c0-2.37-.88-3.81-2.62-4.32-.88-.29-1.42-.58-1.64-.87s-.33-1.14-.33-2.55c0-2.82,.77-4.23,2.3-4.23h30.24c6.02,0,11.38,2.26,16.11,6.78,4.72,4.52,7.08,10.59,7.08,18.21,0,10.83-5.52,17.9-16.57,21.22,10.1,2.23,15.15,8.62,15.15,19.2v13.02c0,1.09,.42,1.91,1.26,2.46,.98,.66,1.48,1.66,1.48,3.01,0,2.11-.13,3.37-.38,3.77-.26,.4-.93,.6-2.02,.6h-14.66c-1.75,0-3.19-.99-4.32-2.98-1.13-1.99-1.7-4.44-1.7-7.36v-22.04c0-4.3-2.17-6.45-6.51-6.45h-2.46Zm0-43.2v36.86h3.55c3.61,0,5.41-3.63,5.41-10.88v-17.61c0-3.06-.57-5.22-1.72-6.48s-2.94-1.89-5.39-1.89h-1.86Z" fill="#fff"/><path d="M284.14,259.72v-2.9c0-1.13,.6-1.7,1.8-1.7h26.2c.98,0,1.62,.13,1.91,.38,.29,.26,.44,1.02,.44,2.3,0,1.93-.1,3.14-.3,3.61-.2,.48-.65,.77-1.34,.88-2.26,.4-3.39,1.84-3.39,4.32v65.73c0,1.39,.82,2.48,2.46,3.28,1.06,.51,1.7,.97,1.91,1.37,.22,.4,.33,1.09,.33,2.08v2.13c0,1.17-.11,1.82-.33,1.97s-.78,.22-1.7,.22h-26.69c-1.02,0-1.53-.4-1.53-1.2,0-2.62,.09-4.23,.27-4.81s.82-1.04,1.91-1.37c1.97-.55,2.95-1.59,2.95-3.12v-64.91c0-1.53-.18-2.69-.55-3.47-.36-.78-1.17-1.43-2.41-1.94-.91-.4-1.47-.76-1.67-1.07-.2-.31-.3-.9-.3-1.78Z" fill="#fff"/><path d="M321,331.26v-66.23c-.11-.73-.77-1.27-1.97-1.64-.95-.29-1.59-.72-1.91-1.29-.33-.56-.49-1.78-.49-3.64,0-1.35,.24-2.24,.71-2.68,.47-.44,1.7-.66,3.66-.66h26.2c7.47,0,13.66,3.45,18.57,10.34,4.9,6.89,7.36,18.34,7.36,34.34,0,14.58-2.37,25.49-7.11,32.73-4.74,7.24-11.01,10.86-18.81,10.86h-28.88c-.8,0-1.36-.19-1.67-.57-.31-.38-.46-1.23-.46-2.54,0-1.57,.05-2.55,.16-2.95,.11-.4,.64-.86,1.59-1.37,2.04-1.06,3.06-2.62,3.06-4.7Zm20.34-69.62v75.74h2.9c2.04,0,3.54-.85,4.48-2.54,.95-1.7,1.42-4.71,1.42-9.05v-55.89c0-2.44-.58-4.43-1.75-5.96-1.17-1.53-2.83-2.3-4.98-2.3h-2.08Z" fill="#fff"/><path d="M403.09,257.48c.22-.18,.84-1,1.86-2.46,.66-.95,1.53-1.42,2.62-1.42,.26,0,1.27,.13,3.06,.38,.36,.36,.64,1.13,.82,2.3l2.95,18.54c.15,.98,.22,1.57,.22,1.75,0,.69-.19,1.15-.57,1.37s-1.39,.33-3.04,.33c-1.86,0-3.06-.24-3.61-.71-.55-.47-1.59-2.44-3.12-5.91-3.24-7.33-6.14-10.99-8.7-10.99-1.82,0-2.73,1.28-2.73,3.83,0,3.17,2.75,9.41,8.26,18.7,6.31,10.72,10.42,18.48,12.33,23.27,1.91,4.8,2.87,10.16,2.87,16.11,0,7.04-1.66,12.43-4.98,16.19-3.32,3.76-7.05,5.63-11.21,5.63-2.62,0-5.16-.75-7.6-2.24-.95-.58-1.7-.88-2.24-.88-.48,0-.86,.35-1.15,1.04-.58,1.39-2.01,2.08-4.27,2.08-.88,0-1.47-.14-1.78-.41-.31-.27-.54-.99-.68-2.16l-2.73-18.21c-.36-2.33-.55-3.57-.55-3.72,0-1.06,.97-1.59,2.9-1.59,2.62,0,4.17,.35,4.65,1.04,.47,.69,1.15,2.28,2.02,4.76,3.21,8.86,6.43,13.29,9.68,13.29,1.2,0,2.18-.44,2.93-1.31,.75-.88,1.12-1.97,1.12-3.28,0-2.3-.83-5.02-2.49-8.18-1.66-3.15-3.69-6.66-6.1-10.53-5.76-9.26-9.83-16.65-12.22-22.18-2.39-5.52-3.58-11.17-3.58-16.93,0-6.49,1.42-11.67,4.27-15.53,2.84-3.86,6.33-5.8,10.45-5.8,2.84,0,6.29,1.28,10.34,3.83Z" fill="#fff"/></g></svg>