<?xml version="1.0" encoding="utf-8"?>
<!-- Generator: Adobe Illustrator 16.0.3, SVG Export Plug-In . SVG Version: 6.00 Build 0)  -->
<!DOCTYPE svg PUBLIC "-//W3C//DTD SVG 1.1//EN" "http://www.w3.org/Graphics/SVG/1.1/DTD/svg11.dtd">
<svg version="1.1" id="Warstwa_1" xmlns:v="https://vecta.io/nano"
	 xmlns="http://www.w3.org/2000/svg" xmlns:xlink="http://www.w3.org/1999/xlink" x="0px" y="0px" width="122.25px"
	 height="122.25px" viewBox="0 0 122.25 122.25" enable-background="new 0 0 122.25 122.25" xml:space="preserve">
<circle cx="60.875" cy="61.125" r="61.062"/>
<g>
	<path fill="#F7E2AD" d="M1.056,61.092C1.03,28.129,27.838,1.141,61.137,1.16c33.333,0.021,60.349,27.205,59.992,60.632
		c-0.35,32.741-27.097,59.425-60.279,59.298C27.729,120.967,0.999,94.059,1.056,61.092L1.056,61.092z M119.615,61.133
		c0.047-32.055-25.979-58.445-58.493-58.461C28.723,2.656,2.819,28.818,2.556,60.627c-0.268,32.371,25.923,58.939,58.5,58.961
		c32.485,0.016,58.594-26.338,58.56-58.453L119.615,61.133L119.615,61.133z M4.985,61.147C4.862,30.375,30.046,4.971,61.288,5.074
		c31.039,0.104,56.146,25.483,55.926,56.474c-0.22,30.655-25.342,55.825-56.5,55.632C29.821,116.988,4.88,91.783,4.976,61.147l0,0
		H4.985z M5.87,61.096c-0.049,30.275,24.498,55.072,55.009,55.183c30.691,0.1,55.348-24.707,55.436-54.981
		c0.104-30.404-24.553-55.313-55.207-55.32C30.467,5.967,5.851,30.821,5.87,61.098l0,0V61.096z M102.74,61.098
		c0.011,23.031-18.773,41.699-41.79,41.625c-22.947-0.074-41.642-18.793-41.5-41.844c0.131-22.885,18.879-41.508,41.95-41.347
		c22.795,0.16,41.325,18.708,41.347,41.565h0.003L102.74,61.098L102.74,61.098z M61.075,101.521
		c22.301,0,40.479-18.125,40.46-40.396c-0.02-22.318-18.124-40.345-40.348-40.389c-22.354-0.047-40.535,18.08-40.548,40.359
		c-0.011,22.268,18.153,40.422,40.434,40.422h0.002V101.521z M17.913,30.821l-0.195-0.768c-0.135-0.744,0.236-1.392,0.88-1.57
		c0.373-0.102,0.565-0.029,0.84,0.334l-0.563,0.425c-0.248,0.216-0.399,0.483-0.324,0.828c0.072,0.38,0.199,0.5,0.597,0.46
		c0.817-0.062,1.604,0.05,2.38,0.322c0.198,0.07,0.438,0.015,0.717,0.018c0.01,0.253,0.213,0.436,0.482,0.617
		c1.107,0.74,1.926,1.71,2.112,3.076c0.202,1.484-0.36,2.652-1.58,3.511c-0.12,0.084-0.246,0.157-0.368,0.235
		c-0.014,0.011-0.02,0.031-0.053,0.08c0.05,0.164,0.115,0.353,0.16,0.545c0.149,0.601-0.121,1.293-0.61,1.592
		c-0.46,0.281-0.886,0.201-1.24-0.229c1.017-0.824,1.07-0.941,0.728-1.623c-0.147,0-0.311-0.011-0.471,0
		c-0.724,0.045-1.43-0.041-2.107-0.3c-0.287-0.11-0.551-0.147-0.858,0.087c0.015-0.404-0.22-0.568-0.473-0.734
		c-0.968-0.629-1.692-1.465-2.032-2.584c-0.48-1.576,0.174-3.23,1.59-4.094l0.385-0.228H17.913L17.913,30.821z M19.327,36.551
		c0.1,0.207,0.129,0.42,0.242,0.479c0.5,0.262,1.008,0.462,1.676,0.476l-0.97-1.709c-0.167-0.306-0.327-0.601-0.81-0.607
		c0.27-0.311,0.184-0.563,0.053-0.816c-0.107-0.21-0.199-0.43-0.3-0.648l-0.955-2.104c-0.144,0.026-0.254,0.03-0.353,0.067
		c-1.293,0.479-1.836,2.094-1.097,3.281c0.438,0.705,1.093,1.17,1.782,1.604c0.243,0.152,0.466,0.199,0.727-0.02l0.002-0.004
		L19.327,36.551L19.327,36.551z M22.423,37.381c1.523-0.726,1.938-2.586,0.874-3.771c-0.302-0.336-0.693-0.594-1.05-0.877
		c-0.282-0.225-0.586-0.364-0.9-0.11c-0.092-0.19-0.124-0.399-0.236-0.462c-0.537-0.303-1.131-0.49-1.744-0.547l1.159,2.047
		c0.155,0.279,0.308,0.542,0.744,0.52c-0.239,0.336-0.146,0.586,0.013,0.855c0.215,0.363,0.4,0.746,0.578,1.126l0.572,1.22
		L22.423,37.381L22.423,37.381z M96.893,99.432c-0.039-0.074-0.053-0.139-0.09-0.168c-0.604-0.457-0.539-1.135-0.576-1.771
		c-0.019-0.299,0.125-0.529,0.377-0.689c0.203-0.131,0.405-0.152,0.629,0.035l-0.166,0.271c-0.236,0.397-0.229,0.558,0.07,0.947
		l1.205,1.532l-0.387,0.338l-4.782,3.804c-0.364,0.295-0.69,0.354-1.073,0.104c0-0.045-0.015-0.09,0.002-0.109
		c0.479-0.848,0.469-1.033-0.121-1.773l-1.096-1.379c-0.214-0.281-0.406-0.576-0.912-0.406c0.25-0.6-0.14-0.9-0.408-1.248
		l-1.023-1.293c-0.463-0.58-0.727-0.66-1.438-0.457l-0.277,0.074c-0.143-0.439-0.07-0.756,0.313-1.057l4.75-3.766l0.465-0.354
		l1.088,1.347c0.49,0.604,0.49,0.604,1.254,0.392c0.029-0.011,0.068,0.012,0.104,0.019c0.093,0.534-0.284,0.907-0.823,0.811
		c-0.334-0.061-0.603-0.336-1-0.258c-0.063,0.015-0.16-0.129-0.229-0.213l-0.521-0.644c-0.354,0.14-0.574,0.354-0.701,0.683
		c-0.35,0.84-0.955,1.381-1.879,1.508c-0.328,0.045-0.586,0.192-0.834,0.515l2.021,2.543c1.191-0.535,1.438-1.004,1.146-2.132
		c0.525-0.194,0.66-0.172,0.979,0.22c0.277,0.34,0.531,0.703,0.827,1.026c0.315,0.347,0.372,0.695,0.122,1.14
		c-0.172-0.088-0.34-0.185-0.514-0.265c-0.383-0.18-0.742-0.166-1.08,0.111l-0.855,0.684l2.043,2.564
		c0.354-0.158,0.561-0.38,0.688-0.707c0.32-0.818,0.935-1.3,1.795-1.453c0.355-0.063,0.664-0.203,0.914-0.521l0.004-0.002h-0.01
		V99.432z M41.895,106.105l-1.177,3.055c0.292,0.201,0.564,0.32,0.9,0.254c0.892-0.178,1.633,0.113,2.219,0.781
		c0.242,0.273,0.517,0.461,0.931,0.541c0.106-0.25,0.229-0.5,0.327-0.781c0.049-0.176,0.185-0.314,0.359-0.365
		c0.181-0.063,0.33-0.221,0.488-0.342c0.307-0.229,0.641-0.311,0.971-0.1c0.145,0.096,0.222,0.291,0.39,0.523h-0.384
		c-0.5-0.012-0.653,0.082-0.84,0.535l-0.717,1.811c-0.134-0.033-0.24-0.047-0.339-0.084l-5.909-2.266
		c-0.427-0.158-0.605-0.424-0.595-0.854c1.224-0.146,1.224-0.146,1.675-1.318l0.514-1.336c0.123-0.332,0.387-0.67-0.144-1.027
		c0.568-0.105,0.728-0.426,0.854-0.805c0.199-0.59,0.416-1.178,0.675-1.744c0.262-0.576,0.13-1.027-0.32-1.426
		c-0.079-0.068-0.157-0.145-0.256-0.236c0.33-0.33,0.634-0.436,1.087-0.252l5.648,2.178c0.166,0.064,0.33,0.146,0.545,0.238
		l-0.485,1.299l-0.196,0.516c-0.17,0.48-0.133,0.619,0.254,0.959l0.207,0.178c-0.414,0.381-0.934,0.271-1.135-0.234
		c-0.132-0.334-0.229-0.688-0.313-1.029c-0.022-0.09,0.048-0.207,0.082-0.313l0.271-0.769c-0.274-0.209-0.624-0.299-0.965-0.244
		c-0.899,0.119-1.66-0.153-2.25-0.875c-0.267-0.315-0.28-0.313-0.851-0.426l-1.193,3.104c0.43,0.158,0.816,0.32,1.217,0.438
		c0.301,0.088,0.584-0.02,0.815-0.225c0.149-0.135,0.276-0.291,0.413-0.438c0.467,0.404,0.498,0.512,0.302,1.033
		c-0.149,0.395-0.325,0.777-0.45,1.184c-0.136,0.441-0.393,0.699-0.915,0.678l-0.026-0.451c-0.025-0.484-0.229-0.84-0.707-1
		c-0.311-0.109-0.612-0.229-0.974-0.363l-0.002-0.004L41.895,106.105z M101.406,89.465l-0.426-0.385l-2.106-1.689
		c-0.75-0.602-0.795-0.604-1.705-0.313c-0.224-0.393-0.222-0.744,0.106-1.1c0.271-0.301,0.521-0.613,0.757-0.943
		c0.265-0.373,0.594-0.447,0.995-0.313c0.012,0.053,0.033,0.096,0.021,0.119c-0.364,0.773-0.092,1.322,0.582,1.773
		c0.427,0.283,0.806,0.641,1.21,0.951c0.301,0.238,0.563,0.639,1.163,0.225c-0.228,0.604,0.09,0.803,0.36,1.006l1.466,1.176
		c0.647,0.521,0.873,0.533,1.586,0.135l0.188-0.104c0.312,0.555,0.307,0.619-0.049,1.07l-0.728,0.9
		c-0.368,0.455-0.396,0.465-1.063,0.35l0.045-0.357c0.051-0.313-0.063-0.635-0.295-0.852c-0.104-0.104-0.232-0.186-0.334-0.287
		c-0.304-0.318-0.656-0.369-1.102-0.305c-1.475,0.229-2.947,0.398-4.42,0.598c-0.082,0.014-0.163,0.035-0.331,0.064
		c0.188,0.17,0.315,0.295,0.456,0.404l2.877,2.313c0.5,0.422,0.997,0.606,1.59,0.242c0.314,0.535,0.313,0.646-0.023,1.08
		c-0.24,0.303-0.504,0.588-0.722,0.904c-0.263,0.393-0.593,0.516-1.075,0.363l0.092-0.338c0.16-0.551,0.061-0.996-0.438-1.354
		c-0.563-0.411-1.104-0.854-1.639-1.306c-0.241-0.207-0.479-0.348-0.803-0.146c-0.092-0.25-0.123-0.5-0.25-0.662
		c-0.139-0.186-0.356-0.309-0.549-0.455l-1.246-1c-0.592-0.471-0.869-0.482-1.547-0.104c-0.063,0.037-0.127,0.07-0.188,0.104
		c-0.305-0.521-0.303-0.64,0.05-1.074c0.237-0.307,0.504-0.59,0.722-0.906c0.264-0.393,0.6-0.516,1.063-0.357
		c-0.017,0.193-0.046,0.393-0.039,0.588c0.01,0.504,0.263,0.739,0.763,0.676l3.602-0.498l1.377-0.199h0.004v0.006H101.406z
		 M52.643,107.303l-0.22,1.643l-0.356,2.783c-0.081,0.59,0.16,0.992,0.69,1.279c-0.207,0.385-0.458,0.607-0.918,0.525
		c-0.396-0.072-0.801-0.113-1.202-0.141c-0.456-0.027-0.769-0.213-0.877-0.732l0.493-0.146c0.41-0.145,0.689-0.395,0.744-0.855
		l0.306-2.35c0.046-0.301-0.077-0.5-0.284-0.646c0.153-0.226,0.336-0.396,0.417-0.617c0.086-0.229,0.076-0.504,0.108-0.76
		c0.064-0.515,0.115-1.021,0.199-1.525c0.104-0.614-0.14-1.028-0.688-1.301c-0.082-0.041-0.16-0.086-0.26-0.146
		c0.207-0.388,0.468-0.601,0.926-0.515c0.377,0.07,0.764,0.117,1.146,0.136c0.48,0.021,0.806,0.213,0.928,0.729
		c-0.17,0.082-0.358,0.148-0.524,0.258c-0.442,0.271-0.5,0.639-0.17,1.033l2.87,3.479l0.32,0.381l0.166-1.107
		c0.094-0.729,0.139-1.467,0.277-2.188c0.131-0.681-0.011-1.19-0.65-1.539c0.222-0.427,0.522-0.604,0.99-0.515
		c0.377,0.07,0.763,0.113,1.146,0.136c0.467,0.022,0.752,0.241,0.862,0.719c-0.1,0.035-0.195,0.087-0.299,0.104
		c-0.601,0.121-0.92,0.476-0.98,1.091c-0.064,0.676-0.154,1.354-0.248,2.021c-0.045,0.319-0.042,0.614,0.318,0.858
		c-0.541,0.213-0.506,0.651-0.551,1.063c-0.064,0.582-0.119,1.17-0.224,1.746c-0.116,0.646,0.14,1.063,0.708,1.328
		c0.08,0.034,0.15,0.092,0.232,0.145c-0.213,0.398-0.5,0.58-0.949,0.496c-0.396-0.071-0.801-0.114-1.202-0.141
		c-0.47-0.027-0.731-0.265-0.84-0.74c0.124-0.049,0.243-0.092,0.354-0.146c0.299-0.146,0.504-0.373,0.569-0.701
		c0.058-0.284,0.101-0.577,0.113-0.866c0.006-0.109-0.063-0.248-0.14-0.345l-3.121-3.851c-0.029-0.036-0.086-0.051-0.185-0.104
		v0.009L52.643,107.303z M71.941,108.395c0.354-0.297,0.269-0.611,0.216-0.941c-0.15-0.93-0.07-1.826,0.346-2.688
		c0.101-0.188,0.128-0.397,0.22-0.699l-1.146,0.086c0.073-0.463,0.235-0.784,0.713-0.933l4.604-1.487
		c0.431-0.146,0.739-0.065,1.053,0.297l-0.355,0.302c-0.357,0.317-0.505,0.692-0.333,1.187c0.24,0.674,0.443,1.356,0.665,2.037
		c0.159,0.5,0.159,0.5,0.602,0.729c-0.277,0.313-0.188,0.643-0.062,0.995c0.214,0.587,0.388,1.188,0.578,1.781
		c0.246,0.754,0.444,0.899,1.271,0.955c0.069,0.004,0.141,0.021,0.229,0.034c-0.047,0.437-0.19,0.734-0.655,0.845
		c-0.408,0.094-0.802,0.235-1.199,0.394c-0.433,0.17-0.73,0.03-1.021-0.322c0.099-0.104,0.188-0.188,0.269-0.278
		c0.221-0.254,0.313-0.554,0.217-0.871l-0.836-2.616c-0.553,0.096-1.045,0.266-1.521,0.477c-0.121,0.054-0.17,0.261-0.275,0.438
		c-0.264-0.315-0.566-0.219-0.889-0.102c-0.342,0.125-0.697,0.231-1.098,0.368l0.182,0.584c0.176,0.543,0.363,1.078,0.521,1.625
		c0.175,0.621,0.478,1.078,1.209,1.07c0,0.471-0.159,0.76-0.611,0.873c-0.398,0.096-0.781,0.213-1.148,0.373
		c-0.44,0.194-0.771,0.079-1.063-0.252c0.02-0.046,0.02-0.093,0.036-0.107c0.769-0.604,0.829-0.812,0.526-1.739l-0.521-1.623
		c-0.104-0.36-0.229-0.701-0.718-0.791v0.002v0.004h-0.004v-0.006H71.941z M75.007,106.582c0.199,0.07,0.374,0.201,0.517,0.168
		c0.49-0.115,0.971-0.295,1.496-0.465l-1.023-3.166c-1.967,0.467-3.359,2.357-2.664,4.352c0.383-0.121,0.76-0.248,1.146-0.354
		c0.285-0.08,0.506-0.207,0.531-0.535H75.007L75.007,106.582z M68.738,108.977c-0.479,0.256-0.432,0.586-0.396,0.92l0.182,1.979
		c0.031,0.65,0.358,1,0.979,1.146c0.086,0.021,0.168,0.062,0.257,0.092c-0.101,0.479-0.402,0.683-0.863,0.699
		c-0.367,0.017-0.734,0.028-1.099,0.104c-0.485,0.102-0.815-0.063-1.039-0.529l0.341-0.25c0.223-0.184,0.396-0.418,0.375-0.701
		c-0.062-0.936-0.154-1.854-0.24-2.836c-0.527,0.047-1.004,0.063-1.471,0.145c-0.166,0.029-0.31,0.214-0.49,0.354
		c-0.188-0.289-0.479-0.313-0.832-0.246c-0.354,0.063-0.726,0.069-1.148,0.104l0.146,1.78c0.015,0.146,0.054,0.291,0.051,0.438
		c-0.018,0.695,0.229,1.223,0.971,1.416c-0.146,0.443-0.357,0.729-0.861,0.721c-0.387-0.012-0.771,0.043-1.149,0.104
		c-0.462,0.069-0.791-0.07-0.988-0.494c0.023-0.022,0.041-0.063,0.068-0.082c0.895-0.459,0.973-0.59,0.9-1.599
		c-0.052-0.604-0.113-1.204-0.182-1.801c-0.055-0.479-0.057-0.479-0.454-0.787c0.438-0.278,0.324-0.713,0.288-1.116l-0.178-1.755
		c-0.067-0.729-0.25-0.95-0.942-1.168c-0.086-0.022-0.175-0.045-0.261-0.063c0.188-0.603,0.267-0.666,0.822-0.713
		c0.384-0.03,0.771-0.058,1.148-0.106c0.461-0.071,0.789,0.063,1.006,0.515c-0.106,0.082-0.229,0.166-0.336,0.256
		c-0.256,0.211-0.405,0.479-0.381,0.815l0.24,2.74c0.559-0.052,1.063-0.07,1.563-0.149c0.146-0.025,0.27-0.218,0.43-0.359
		c0.195,0.328,0.537,0.31,0.888,0.263l1.065-0.123l-0.135-1.565c-0.018-0.183-0.044-0.363-0.056-0.548
		c-0.074-1-0.123-1.09-0.97-1.557c0.104-0.447,0.394-0.664,0.855-0.685c0.387-0.019,0.771-0.041,1.148-0.106
		c0.475-0.091,0.771,0.101,0.979,0.493c-0.023,0.039-0.035,0.082-0.063,0.097c-0.885,0.438-0.963,0.567-0.889,1.533l0.158,1.864
		c0.025,0.32,0.084,0.613,0.566,0.785l0,0L68.738,108.977z M39.155,22.315c0.68-0.85,0.682-0.87,0.211-1.85l-0.709-1.5
		c-0.125-0.277-0.242-0.541-0.729-0.473c0.367-0.385,0.184-0.666,0.04-0.958l-0.804-1.69c-0.241-0.556-0.606-0.863-1.239-0.752
		c-0.052,0.01-0.11-0.009-0.163-0.019c-0.018-0.003-0.03-0.021-0.046-0.032c-0.06-0.449-0.036-0.537,0.305-0.703l5.364-2.56
		c0.373-0.177,0.468-0.138,0.652,0.218l0.603,1.236c0.172,0.365,0.39,0.621,0.853,0.488c0.075-0.021,0.185,0.071,0.276,0.114
		c-0.042,0.091-0.06,0.21-0.13,0.269c-0.316,0.271-0.702,0.277-1.068,0.045c-0.199-0.127-0.42-0.225-0.598-0.377
		c-0.146-0.125-0.253-0.301-0.352-0.473c-0.246-0.436-0.443-0.475-0.805-0.134c-0.119,0.113-0.21,0.254-0.32,0.377
		c-0.502,0.574-1.127,0.86-1.896,0.825c-0.11-0.005-0.22-0.012-0.328,0.004c-0.46,0.072-0.563,0.252-0.37,0.678l0.922,1.938
		c0.209,0.423,0.28,0.44,0.734,0.239l0.3-0.137c0.521-0.213,0.792-0.574,0.71-1.158c-0.012-0.084,0.016-0.174,0.022-0.264
		c0.36-0.095,0.587,0.014,0.735,0.33c0.214,0.467,0.436,0.93,0.666,1.389c0.156,0.311,0.108,0.561-0.203,0.82l-0.354-0.3
		c-0.292-0.246-0.618-0.322-0.973-0.16c-1.147,0.521-1.076,0.435-0.588,1.435l0.66,1.391c0.174,0.418,0.443,0.52,0.836,0.115
		c0.051-0.053,0.092-0.115,0.138-0.172c0.5-0.703,1.196-0.996,2.04-0.988l0.166,0.002c0.627-0.03,0.753-0.221,0.505-0.788
		c-0.101-0.229-0.16-0.438-0.054-0.685c0.054-0.127,0.029-0.287,0.037-0.434c0.033-0.611,0.297-0.855,0.951-0.863
		c0.123,0.182,0.01,0.297-0.123,0.405c-0.275,0.226-0.271,0.498-0.133,0.792l0.633,1.346c0.168,0.375,0.139,0.467-0.229,0.646
		l-5.312,2.543c-0.33,0.159-0.598,0.127-0.843-0.185l0.004-0.006L39.155,22.315z M78.18,20.014c0.771-0.149,1.264-0.699,1.309-1.439
		c0.012-0.139-0.021-0.295-0.076-0.426l-1.77-4.032c-0.021-0.047-0.063-0.083-0.154-0.192l-0.229,0.424l-1.328,3.203
		c-0.342,0.822-0.338,0.859,0.104,1.582c-0.131,0.27-0.45,0.383-0.723,0.254c-0.01-0.004-0.018-0.008-0.021-0.013l-1.373-0.569
		c-0.354-0.156-0.373-0.207-0.354-0.688c0.029-0.017,0.063-0.052,0.095-0.048c0.765,0.092,1.142-0.317,1.364-0.987
		c0.188-0.537,0.427-1.056,0.646-1.577c0.124-0.287,0.268-0.564-0.091-0.885c0.493-0.037,0.604-0.344,0.729-0.654l0.723-1.727
		c0.244-0.54,0.195-0.993-0.293-1.367c-0.055-0.04-0.082-0.113-0.118-0.165c0.313-0.375,0.381-0.407,0.735-0.271
		c0.463,0.18,0.92,0.368,1.373,0.567c0.353,0.154,0.375,0.218,0.369,0.72c-0.147,0.027-0.313,0.043-0.469,0.086
		c-0.424,0.125-0.637,0.502-0.471,0.885l1.854,4.113c0.014,0.03,0.045,0.053,0.117,0.131c0.082-0.129,0.171-0.23,0.223-0.351
		l1.037-2.489c0.231-0.527,0.332-1.016-0.146-1.445c0.286-0.387,0.386-0.438,0.729-0.307l1.426,0.586
		c0.313,0.139,0.33,0.198,0.345,0.678c-0.063,0.02-0.134,0.06-0.199,0.053c-0.631-0.072-0.997,0.225-1.213,0.8l-0.761,1.83
		c-0.114,0.263-0.207,0.513,0.084,0.8c-0.396,0.053-0.538,0.268-0.646,0.557l-0.718,1.728c-0.271,0.586-0.28,1.095,0.282,1.517
		c0.041,0.029,0.056,0.1,0.08,0.135c-0.313,0.377-0.381,0.404-0.774,0.25l-1.321-0.543c-0.33-0.127-0.438-0.354-0.38-0.719
		L78.18,20.014L78.18,20.014z M68.438,9.256l-0.965-0.4c0.207-0.426,0.426-0.565,0.881-0.489l4.559,0.79
		c0.436,0.044,0.646,0.275,0.729,0.688c-1.103,0.313-1.132,0.36-1.313,1.479l-0.262,1.462c-0.082,0.33-0.063,0.604,0.248,0.875
		c-0.412,0.138-0.494,0.437-0.545,0.774l-0.297,1.68c-0.146,0.807-0.056,1.02,0.646,1.451c0.045,0.029,0.084,0.07,0.146,0.121
		c-0.221,0.34-0.473,0.527-0.906,0.406c-0.369-0.104-0.752-0.168-1.137-0.201c-0.438-0.039-0.652-0.264-0.74-0.729
		c0.744-0.104,0.938-0.64,1.021-1.287l0.354-2.028c-0.652-0.017-1.224-0.484-1.894-0.02c-0.101-0.326-0.368-0.412-0.688-0.447
		c-0.344-0.037-0.687-0.109-1.084-0.178l-0.363,1.966c-0.01,0.036-0.008,0.074-0.018,0.11c-0.181,0.625-0.117,1.173,0.526,1.492
		c-0.246,0.42-0.543,0.568-0.991,0.436c-0.328-0.1-0.683-0.15-1.025-0.18c-0.42-0.037-0.687-0.23-0.777-0.694l0.396-0.11
		c0.455-0.104,0.75-0.35,0.828-0.834l0.381-2.168c0.026-0.207-0.08-0.433-0.142-0.713c0.276-0.113,0.384-0.434,0.485-0.764
		c0.254-0.793,0.75-1.488,1.419-1.984c0.153-0.119,0.301-0.265,0.54-0.496v0.002L68.438,9.256z M71.54,9.93
		c-1.735-0.506-3.685,0.338-4.177,2.404c0.628,0.047,1.222,0.486,1.847,0.061c0.151,0.125,0.283,0.31,0.451,0.354
		c0.418,0.107,0.854,0.15,1.299,0.223c0.039-0.131,0.067-0.215,0.088-0.301L71.54,9.93z M91.452,23.147
		c-0.339-0.061-0.527,0.146-0.729,0.369c-0.836,0.926-1.845,1.508-3.131,1.474c-0.771-0.021-1.492-0.245-2.13-0.667
		c-0.989-0.66-1.952-1.368-2.92-2.066c-0.299-0.214-0.295-0.516-0.188-0.85l0.332,0.08c0.521,0.119,0.934,0.005,1.237-0.469
		c0.33-0.506,0.703-0.986,1.063-1.469c0.197-0.267,0.412-0.521,0.193-0.947c0.428,0.078,0.611-0.149,0.801-0.416
		c0.345-0.5,0.713-0.98,1.063-1.473c0.473-0.652,0.475-0.834,0.037-1.537c-0.025-0.045-0.049-0.095-0.084-0.16
		c0.359-0.26,0.676-0.258,1.041,0.026c0.68,0.528,1.402,1.002,2.084,1.532c0.418,0.324,0.828,0.678,1.17,1.08
		c1.066,1.254,1.246,2.652,0.566,4.156c-0.092,0.199-0.191,0.395-0.301,0.586c-0.185,0.326-0.187,0.324-0.107,0.752l0,0
		L91.452,23.147z M89.82,21.963c0.375,0.07,0.56,0.026,0.693-0.199c0.875-1.453,0.873-2.781-0.416-3.976
		c-0.494-0.46-1.063-0.84-1.621-1.28c-0.137,0.168-0.24,0.291-0.334,0.42l-1.363,1.869c-0.18,0.239-0.354,0.467-0.104,0.842
		c-0.44-0.09-0.61,0.133-0.786,0.383c-0.392,0.556-0.798,1.102-1.193,1.65c-0.146,0.203-0.283,0.412-0.438,0.637
		c0.678,0.52,1.309,1.021,2.063,1.336c0.992,0.412,1.938,0.34,2.813-0.308c0.225-0.159,0.396-0.366,0.613-0.55
		C89.956,22.59,90.104,22.37,89.82,21.963L89.82,21.963L89.82,21.963z M51.35,13.938l0.364,0.42l1.797,1.787
		c0.355,0.355,0.77,0.604,1.3,0.672c-0.084,0.433-0.252,0.691-0.662,0.755c-0.36,0.06-0.71,0.167-1.073,0.237
		c-0.125,0.029-0.254,0.027-0.377-0.006c-0.326-0.104-0.381-0.33-0.173-0.619l0.154-0.234c-0.056-0.09-0.093-0.176-0.153-0.236
		l-2.148-2.137c-0.291-0.285-0.659-0.314-1.016-0.128c-0.159,0.069-0.24,0.249-0.187,0.415l0.556,2.3
		c0.105,0.403,0.436,0.565,0.811,0.63c0.021,0.439-0.051,0.59-0.383,0.676l-1.558,0.354c-0.315,0.063-0.521-0.082-0.633-0.354
		c0.028-0.063,0.032-0.107,0.058-0.125c0.7-0.518,0.766-0.666,0.566-1.531l-0.413-1.825c-0.06-0.268-0.113-0.545-0.535-0.594
		c0.306-0.219,0.313-0.438,0.24-0.715l-0.423-1.822c-0.221-0.951-0.301-1.031-1.225-1.215c-0.041-0.433,0.004-0.56,0.369-0.643
		l3.822-0.804c0.365-0.065,0.77,0.021,1.143,0.092c0.405,0.08,0.739,0.313,1,0.644c0.889,1.123,0.643,2.785-0.541,3.594
		c-0.193,0.133-0.402,0.246-0.677,0.412v0.002L51.35,13.938L51.35,13.938z M50.385,10.156l-1.841,0.399
		c-0.217,0.051-0.297,0.215-0.252,0.42l0.539,2.36c0.056,0.234,0.224,0.335,0.461,0.282c0.682-0.152,1.356-0.325,1.961-0.693
		c0.445-0.273,0.679-0.681,0.65-1.195c-0.016-0.289-0.093-0.582-0.195-0.854c-0.194-0.515-0.561-0.735-1.32-0.729h-0.002
		L50.385,10.156z M31.487,99.631c-0.464-0.105-0.718,0.072-0.986,0.285c-0.933,0.742-1.983,1.176-3.197,1.141
		c-2.141-0.063-3.801-2.02-3.525-4.141c0.122-0.951,0.467-1.811,1.047-2.566c0.18-0.232,0.301-0.455,0.135-0.813
		c0.416,0.109,0.66-0.08,0.92-0.293c0.923-0.756,1.968-1.205,3.181-1.189c1.88,0.014,3.45,1.471,3.604,3.344
		c0.104,1.229-0.277,2.316-0.989,3.305c-0.188,0.26-0.364,0.506-0.2,0.938l0.002-0.004L31.487,99.631z M29.887,98.186
		c0.237-0.102,0.5-0.107,0.612-0.244c0.568-0.635,1.037-1.34,1.238-2.18c0.201-0.84,0.026-1.604-0.619-2.221
		c-0.692-0.664-1.494-0.818-2.4-0.521c-0.674,0.229-1.242,0.627-1.77,1.088c-0.264,0.23-0.558,0.439-0.402,0.813
		c-0.23,0.086-0.48,0.104-0.604,0.231c-0.481,0.531-0.85,1.142-1.062,1.847c-0.486,1.612,1.27,3.215,2.615,3.006
		c0.779-0.119,1.399-0.521,1.982-1.004c0.266-0.229,0.563-0.438,0.4-0.813l0,0h0.01V98.186z"/>
	<path fill="#F7E2AD" d="M99.561,31.375c0.195,0.156,0.396,0.063,0.606-0.082l1.735-1.17c0.611-0.415,0.688-0.605,0.537-1.332
		c-0.01-0.052-0.002-0.107-0.002-0.16c0.471-0.156,0.551-0.143,0.791,0.2l0.799,1.188c0.211,0.33,0.201,0.369-0.082,0.8
		c-0.1-0.035-0.189-0.063-0.281-0.112c-0.264-0.15-0.59-0.137-0.84,0.034l-2.385,1.584c-0.021,0.015-0.021,0.065-0.047,0.147
		l0.502,0.135l3.688,0.619c0.438,0.072,0.438,0.07,0.507-0.367c0.042-0.26,0.162-0.371,0.402-0.299
		c0.17,0.055,0.317,0.158,0.431,0.297c0.26,0.334,0.482,0.691,0.71,1.048c0.228,0.354,0.218,0.399-0.138,0.823
		c-0.43-0.354-0.953-0.404-1.479-0.478l-2.609-0.397c-0.475-0.07-0.573-0.021-0.77,0.412l-1.548,3.41
		c-0.167,0.375-0.26,0.762-0.21,1.178c0.018,0.104-0.01,0.201-0.021,0.32c-0.348,0.115-0.592,0.041-0.771-0.252l-0.706-1.05
		c-0.195-0.284-0.176-0.54,0.047-0.784c0.051-0.016,0.088-0.041,0.113-0.033c0.563,0.151,0.563,0.152,0.809-0.381l1.127-2.449
		l0.193-0.477c-0.207-0.324-0.521-0.22-0.771-0.305c-1.103-0.373-1.769,0.351-2.438,0.98c-0.174,0.16-0.156,0.528-0.238,0.838
		c-0.342,0.146-0.475,0.133-0.688-0.164l-0.855-1.279c-0.186-0.288-0.16-0.354,0.096-0.784l0.361,0.208
		c0.34,0.225,0.688,0.256,1.031,0.033l2.104-1.412c0.123-0.088,0.17-0.286,0.291-0.497l0,0L99.561,31.375z M99.646,24.856
		c0.17,0.32,0.101,0.56-0.133,0.765l-0.887,0.75c-0.275,0.226-0.584,0.263-0.92,0.088c0.021-0.085,0.021-0.14,0.04-0.187
		c0.521-1.217,0.08-2.576-1.063-3.233c-0.537-0.312-1.02-0.271-1.474,0.122c-0.3,0.26-0.464,0.6-0.384,0.98
		c0.093,0.424,0.24,0.844,0.424,1.238c0.064,0.139,0.305,0.196,0.495,0.311c-0.177,0.236,0.015,0.445,0.142,0.689
		c0.258,0.482,0.541,0.965,0.707,1.48c0.479,1.494-1.051,3.313-2.699,2.939c-1.562-0.355-2.563-1.348-3.27-2.701
		c-0.154-0.299-0.221-0.625-0.697-0.475c-0.229,0.07-0.438-0.322-0.258-0.561c0.373-0.492,0.797-0.963,1.387-1.213
		c0.142-0.058,0.315-0.008,0.521-0.008c-0.08,0.264-0.168,0.463-0.189,0.666c-0.063,0.485,0.016,0.95,0.28,1.375
		c0.384,0.6,0.854,1.106,1.495,1.428c0.604,0.305,1.201,0.31,1.746-0.153c0.49-0.42,0.619-1.003,0.369-1.706
		c-0.067-0.189-0.172-0.366-0.242-0.555c-0.104-0.27-0.283-0.412-0.684-0.33c0.271-0.342,0.135-0.567-0.023-0.801
		c-0.33-0.488-0.561-1.039-0.665-1.617c-0.29-1.539,0.974-2.695,2.476-2.23c1.228,0.381,2.051,1.248,2.646,2.354
		c0.021,0.047,0.046,0.101,0.064,0.15c0.228,0.51,0.227,0.51,0.787,0.444h0.004v-0.009H99.646z M25.53,30.85
		c0.862,0.453,1.625,0.273,2.35-0.24c0.455-0.321,0.846-0.705,1.119-1.193c0.361-0.645,0.33-1.24-0.075-1.75
		c-0.413-0.52-0.958-0.667-1.683-0.449c-0.192,0.061-0.381,0.133-0.563,0.219c-0.337,0.158-0.335,0.164-0.463,0.58
		c-0.245-0.164-0.457-0.08-0.688,0.061c-0.547,0.342-1.164,0.553-1.805,0.62c-1.592,0.157-2.51-1.282-1.967-2.646
		c0.46-1.15,1.326-1.91,2.412-2.451c0.064-0.033,0.136-0.055,0.207-0.082c0.47-0.185,0.47-0.185,0.468-0.713
		c0.43-0.164,0.5-0.16,0.752,0.131l0.715,0.908c0.216,0.291,0.22,0.6,0.044,0.92c-0.29-0.108-0.535-0.236-0.8-0.293
		c-0.981-0.211-2.181,0.334-2.698,1.203c-0.27,0.454-0.277,0.899,0.024,1.342c0.29,0.426,0.704,0.586,1.194,0.502
		c0.321-0.055,0.631-0.178,0.946-0.275c0.276-0.084,0.431-0.264,0.367-0.645c0.33,0.254,0.56,0.101,0.798-0.035
		c0.506-0.307,1.023-0.573,1.616-0.668c1.72-0.275,3.16,1.313,2.687,2.988c-0.408,1.448-1.435,2.354-2.742,2.975
		c-0.336,0.16-0.734,0.211-0.574,0.74c-0.009,0.086-0.059,0.162-0.135,0.203c-0.19-0.004-0.442,0.018-0.559-0.092
		c-0.332-0.313-0.619-0.674-0.902-1.033C25.391,31.44,25.403,31.301,25.53,30.85L25.53,30.85L25.53,30.85z M89.503,106.256
		c-0.146-0.08-0.254-0.184-0.368-0.193c-0.126-0.012-0.287,0.027-0.386,0.104c-0.123,0.103-0.192,0.267-0.289,0.397
		c-0.965,1.291-2.994,2.313-5.08,0.897c-0.524-0.354-0.983-0.817-1.433-1.272c-0.256-0.26-0.454-0.565-0.928-0.571
		c0.263-0.384,0.104-0.688-0.022-1.017c-0.369-0.899-0.509-1.845-0.32-2.808c0.314-1.64,1.4-2.705,3.029-3.021
		c0.181-0.033,0.362-0.082,0.545-0.082c0.38,0,0.588-0.166,0.574-0.573c0.437,0.01,0.663,0.198,0.737,0.608
		c0.047,0.229,0.101,0.471,0.201,0.688c0.176,0.436,0.066,0.775-0.285,1.104l-0.215-0.232c-0.5-0.643-1.16-0.938-1.941-0.729
		c-0.85,0.229-1.434,0.801-1.618,1.7c-0.132,0.634-0.021,1.242,0.174,1.847c0.103,0.313,0.244,0.61,0.363,0.92
		c0.112,0.291,0.271,0.521,0.729,0.455c-0.298,0.414-0.123,0.703,0.077,0.996c0.397,0.575,0.849,1.108,1.446,1.489
		c0.779,0.492,1.574,0.55,2.398,0.104c0.604-0.322,0.918-0.822,0.92-1.514c0-0.835-0.301-1.57-0.738-2.313l-0.922,0.508l-0.85-0.063
		c-0.459-0.009-0.828-0.207-0.908-0.565c-0.035-0.177,0.025-0.367,0.055-0.625l0.254,0.19c0.463,0.388,0.588,0.396,1.125,0.097
		l1.531-0.865c0.143-0.078,0.289-0.142,0.439-0.187c-0.283,0.425,0.021,0.713,0.164,1.037c0.204,0.472,0.42,0.938,0.555,1.437
		c0.119,0.438,0.293,0.758,0.707,0.981s0.475,0.537,0.28,1.065l0.001-0.002L89.503,106.256z M33.86,101.705l-1.557,2.324
		c-0.223,0.352-0.17,0.615,0.1,1.193c-0.449,0.346-0.609,0.354-1.056,0.053l-0.997-0.688c-0.484-0.338-0.5-0.354-0.391-1.058
		c0.896,0.4,1.455,0.007,1.891-0.77c0.28-0.492,0.627-0.949,0.965-1.406c0.188-0.252,0.314-0.487,0.047-0.854
		c0.478,0.086,0.668-0.158,0.854-0.444l1.13-1.63c0.414-0.53,0.42-1.028,0.022-1.553c-0.053-0.069-0.088-0.151-0.143-0.246
		c0.385-0.237,0.708-0.271,1.08,0.004l2.482,1.729c0.4,0.303,0.806,0.646,1.133,1.035c0.664,0.791,0.718,1.693,0.23,2.563
		c-0.566,0.994-1.496,1.502-2.494,1.373c-0.802-0.105-1.51-0.439-2.18-0.869l-1.117-0.76L33.86,101.705L33.86,101.705z
		 M34.36,100.975c0.689,0.543,1.348,0.967,2.1,1.232c0.752,0.268,1.312,0.096,1.798-0.537c0.112-0.146,0.2-0.301,0.294-0.465
		c0.286-0.564,0.253-1.039-0.225-1.445c-0.637-0.541-1.336-1.012-2.06-1.551l-1.905,2.766H34.36L34.36,100.975z M27.883,23.237
		c0.077-0.17,0.104-0.297,0.18-0.383c0.252-0.291,0.195-0.563-0.007-0.85l-0.813-1.181c-0.25-0.375-0.24-0.454,0.133-0.714
		l5.24-3.65c0.393-0.273,0.482-0.253,0.762,0.129l0.729,1.034c0.235,0.345,0.494,0.599,0.958,0.384
		c0.08-0.037,0.2,0.022,0.305,0.033c-0.166,0.561-0.631,0.771-1.154,0.53c-0.471-0.22-1.01-0.349-1.248-0.896
		c-0.023-0.057-0.1-0.086-0.174-0.134c-0.233,0.293-0.413,0.634-0.692,0.833c-0.265,0.2-0.635,0.236-1.022,0.367
		c0.031,0.098,0.049,0.24,0.121,0.346l1.506,2.174c0.145,0.213,0.319,0.274,0.664,0.143c-0.305,0.507-0.02,0.771,0.184,1.063
		l1.01,1.446c0.436,0.615,0.61,0.681,1.346,0.521c0.051-0.012,0.107-0.002,0.16-0.002c0.182,0.442,0.17,0.543-0.166,0.785
		l-1.447,1.008c-0.299,0.205-0.396,0.182-0.764-0.11c0-0.017-0.008-0.04,0-0.05c0.527-0.623,0.383-1.188-0.096-1.768
		c-0.35-0.424-0.646-0.891-0.95-1.353c-0.178-0.271-0.362-0.498-0.813-0.419c0.246-0.365,0.111-0.6-0.069-0.85l-1.3-1.846
		c-0.104-0.145-0.225-0.275-0.36-0.439c-0.253,0.324-0.424,0.67-0.7,0.867c-0.275,0.196-0.666,0.25-1.033,0.377
		c0.006,0.051-0.008,0.141,0.029,0.18c0.452,0.451,0.393,1.041,0.43,1.594c0.035,0.514-0.295,0.82-0.945,0.836L27.883,23.237
		L27.883,23.237z M25.137,89.957c0.235-0.379,0.524-0.709,0.662-1.092c0.481-1.354-0.856-2.523-1.813-2.549
		c-0.457-0.016-0.912,0.047-1.349,0.184c-0.481,0.154-0.935,0.416-1.38,0.67c-0.44,0.246-0.43,0.268-0.5,0.799
		c-0.395-0.252-0.645,0.01-0.905,0.244c-0.5,0.455-0.96,0.959-1.263,1.582c-0.422,0.875-0.357,1.703,0.234,2.482
		c0.58,0.76,1.43,0.973,2.301,0.566l0.455-0.232c0.199,0.387,0.223,0.729-0.088,1.063c-0.174,0.188-0.33,0.395-0.468,0.609
		c-0.217,0.34-0.5,0.469-0.887,0.338c0.05-0.563,0.05-0.563-0.46-0.822c-1.493-0.771-2.286-2.146-2.137-3.721
		c0.06-0.639,0.285-1.225,0.627-1.746c0.279-0.434,0.59-0.84,0.928-1.229c0.207-0.237,0.434-0.44,0.32-0.871
		c0.41,0.185,0.68,0.021,0.97-0.146c0.996-0.568,2.058-0.873,3.217-0.688c1.36,0.218,2.313,0.963,2.853,2.229
		c0.094,0.223,0.168,0.443,0.234,0.678c0.17,0.601,0.167,0.59,0.721,0.709c0.002,0.396-0.177,0.652-0.566,0.771
		c-0.21,0.063-0.416,0.146-0.607,0.258c-0.397,0.229-0.761,0.207-1.105-0.095l-0.004,0.007h0.01V89.957z M56.327,16.637l0.424-0.195
		c0.32-0.166,0.502-0.43,0.496-0.795l-0.078-2.477c-0.01-0.189-0.166-0.369-0.239-0.521c0.067-0.184,0.194-0.373,0.194-0.559
		l-0.063-2.258c-0.012-0.545-0.239-0.91-0.79-1.04c-0.052-0.012-0.1-0.04-0.146-0.071c-0.03-0.021-0.047-0.055-0.084-0.097
		c0.061-0.325,0.252-0.491,0.601-0.5L58.4,8.067c0.4-0.006,0.442,0.054,0.577,0.49c-0.02,0.029-0.036,0.076-0.063,0.084
		c-0.645,0.197-0.893,0.621-0.838,1.293l0.076,2.037c0.014,0.207,0.139,0.41,0.24,0.682c-0.138,0.088-0.222,0.289-0.205,0.57
		l0.096,2.42c0.022,0.533,0.211,0.621,0.705,0.385c0.264-0.126,0.526-0.273,0.805-0.338c0.472-0.106,0.949-0.059,1.398,0.136
		l0.352,0.157c0.447,0.148,0.658,0.025,0.617-0.436c-0.057-0.621,0.354-1.023,0.646-1.457c0.229-0.341,0.637-0.255,0.979-0.166
		c0.072,0.239-0.039,0.332-0.191,0.369c-0.46,0.115-0.527,0.453-0.504,0.85l0.051,1.201c0.012,0.553-0.039,0.602-0.584,0.619
		l-3.8,0.123l-1.813,0.073c-0.385,0.01-0.438-0.05-0.619-0.537l0,0L56.327,16.637z M13.28,59.637l2.639,0.084l0.041,0.115
		l-2.15,1.506l0.801,2.518l-0.097,0.07l-2.11-1.425l-2.125,1.347l-0.091-0.045l0.78-2.469L8.71,59.667
		c1-0.125,1.91-0.103,2.854-0.149l0.801-2.43l0.092,0.006l0.832,2.543H13.28z M111.117,59.692h2.627l0.047,0.123l-2.158,1.527
		l0.795,2.535l-0.082,0.059l-2.135-1.429l-2.109,1.325l-0.094-0.059l0.762-2.443l-2.232-1.659c0.979-0.152,1.883-0.098,2.835-0.171
		l0.801-2.409l0.104-0.009l0.857,2.606L111.117,59.692z M76.014,79.32c0.805,0.094,0.995,0.322,0.901,1.086
		c-0.033,0.273-0.101,0.541-0.194,0.799c-0.14,0.377-0.302,0.438-0.687,0.34l-1.388-0.334c-0.789-0.17-1.578-0.041-2.36,0.037
		c-2.181,0.219-4.319,0.635-6.369,1.439c-0.922,0.359-1.84,0.73-2.61,1.393c-0.039,0.033-0.101,0.043-0.174,0.07
		c-1.226-0.863-2.57-0.654-3.91-0.354c-0.786,0.182-1.554,0.438-2.326,0.672c-0.483,0.146-0.883,0.428-1.303,0.691
		c-2.13,1.363-4.39,2.459-6.882,2.979c-1.059,0.228-2.133,0.366-3.205,0.504c-0.395,0.051-0.807,0.002-1.205-0.052
		c-0.413-0.055-0.566-0.284-0.662-0.69c-0.146-0.616,0.09-1.194,0.193-1.776c0.189-1.063,0.47-2.11,0.976-3.086
		c0.022-0.052,0.056-0.104,0.065-0.147c0.138-0.793,0.682-1.265,1.3-1.683c0.375-0.25,0.792-0.474,0.985-0.933
		c0.033-0.077,0.2-0.131,0.326-0.144c0.2-0.021,0.402-0.004,0.627-0.004l0.247-0.424c1.022-2.037,2.329-3.922,3.878-5.595
		l2.94-3.055c0.21-0.229,0.373-0.492,0.483-0.781c0.369-0.969,0.485-1.993,0.557-3.021c0.031-0.457,0.063-0.921,0.023-1.372
		c-0.064-0.801-0.433-1.125-1.24-1.187l-1.26-0.1c-0.541-0.063-1.019-0.302-1.451-0.628c-0.631-0.465-1-1.063-0.903-1.883
		c0.063-0.358-0.124-0.715-0.455-0.866l-0.19-0.11c-0.377-0.177-0.566-0.45-0.473-0.882c0.02-0.088,0.003-0.18,0.003-0.305
		c-0.745-0.285-0.836-0.873-0.7-1.568c0.053-0.25,0.075-0.506,0.118-0.801l-0.597-0.264l-1.11-0.597
		c-0.362-0.239-0.47-0.612-0.308-1.021c0.129-0.322,0.283-0.633,0.46-0.932l0.8-1.248l0.83-1.17c0.006,0.01-0.004-0.035-0.029-0.043
		c-0.207-0.072-0.441-0.105-0.467-0.393c-0.025-0.307,0.204-0.389,0.417-0.506c0.233-0.131,0.447-0.299,0.702-0.473l-0.284-0.326
		c-0.39-0.371-0.483-0.806-0.31-1.311c0.023-0.07,0.022-0.152,0.066-0.207c0.383-0.538,0.146-0.958-0.248-1.352
		c-0.078-0.078-0.138-0.185-0.229-0.235c-0.522-0.29-0.704-0.826-0.943-1.313c-0.2-0.404-0.202-0.83,0.072-1.201
		c0.182-0.199,0.182-0.502,0.001-0.701c-0.223-0.301-0.2-0.614-0.07-0.939c0.096-0.237,0.146-0.47,0.122-0.741
		c-0.013-0.234,0.064-0.465,0.216-0.644c0.246-0.261,0.275-0.521,0.243-0.849c-0.069-0.715,0.093-1.385,0.478-2
		c0.246-0.395,0.55-0.736,0.97-0.955c0.334-0.172,0.604-0.396,0.783-0.742c0.075-0.15,0.247-0.258,0.387-0.368
		c0.156-0.12,0.325-0.226,0.494-0.327c0.138-0.083,0.284-0.21,0.43-0.217c0.345-0.014,0.558-0.178,0.78-0.424
		c0.646-0.709,1.699-0.895,2.566-0.459c0.246,0.128,0.533,0.152,0.797,0.068c0.478-0.14,0.938-0.08,1.412,0.018
		c0.447,0.092,0.902,0.139,1.358,0.138c0.437,0.002,0.841,0.058,1.22,0.263l1.455,0.782l0.779,0.382
		c-0.101-0.729-0.273-1.385-0.234-2.025c0.027-0.432-0.242-0.899,0.088-1.315c0.029-0.04,0.008-0.147-0.021-0.206
		c-0.119-0.229-0.012-0.4,0.084-0.6c0.125-0.299,0.174-0.624,0.141-0.947c-0.053-0.414,0.058-0.668,0.433-0.84
		c0.256-0.114,0.438-0.313,0.562-0.58c0.08-0.167,0.263-0.286,0.396-0.428c0.398-0.412,0.881-0.613,1.461-0.596
		c0.131,0.002,0.268-0.115,0.393-0.188c0.223-0.125,0.426-0.296,0.697-0.095c0.061,0.041,0.19,0.025,0.268-0.012
		c0.438-0.223,0.91-0.156,1.351-0.088c0.354,0.055,0.771,0.215,0.991,0.473c0.223,0.259,0.443,0.41,0.74,0.5
		c0.287,0.088,0.563,0.176,0.617,0.541c0.027,0.201,0.217,0.242,0.389,0.229c0.547-0.036,0.849,0.259,1.148,0.685
		c0.318,0.453,0.779,0.809,1.176,1.209c0.144,0.14,0.293,0.275,0.402,0.436c0.158,0.236,0.219,0.54,0.524,0.68
		c0.089,0.041,0.121,0.217,0.159,0.336l0.188,0.633c0.104,0.293,0.085,0.554-0.059,0.844c-0.146,0.31-0.28,0.652-0.306,0.99
		c-0.039,0.558-0.367,0.805-0.819,0.979l-1.382,0.55c-0.101,0.04-0.186,0.106-0.351,0.204c0.474,0.33,0.913,0.373,1.378,0.203
		c0.207-0.077,0.399-0.185,0.574-0.319c0.635-0.494,1.307-0.935,1.79-1.607c0.515-0.713,0.897-0.664,1.38,0.08
		c0.348,0.535,0.59,1.103,0.48,1.762c-0.018,0.09-0.01,0.188-0.039,0.271l-0.42,1.172c-0.055,0.137-0.146,0.254-0.264,0.34
		c-0.535,0.373-0.929,0.879-1.352,1.361c-0.18,0.199-0.434,0.334-0.666,0.469l-1.172,0.604c0.688,0.357,0.949,0.987,1.371,1.475
		c0.103,0.131,0.021,0.431-0.078,0.683l0.354,0.405c0.896,0.966,0.867,2.578-0.408,3.386c-0.272,0.175-0.438,0.376-0.5,0.729
		c-0.114,0.851-0.799,1.436-1.645,1.48c-0.068,0.004-0.143,0.02-0.29,0.042l0.397,0.565l0.707,0.981
		c0.222,0.295,0.185,0.58-0.008,0.866l-0.343,0.5c-0.184,0.279-0.202,0.631-0.062,0.932c0.301,0.729,0.381,1.486-0.012,2.229
		c-0.065,0.131-0.146,0.259-0.189,0.396c-0.102,0.27-0.107,0.528,0.1,0.774c0.288,0.34,0.357,0.758,0.329,1.19
		c-0.026,0.403-0.178,0.739-0.528,0.975c-0.438,0.289-0.813,0.646-0.996,1.149c-0.24,0.664-0.699,1.062-1.379,1.2
		c-0.386,0.086-0.646,0.264-0.744,0.684c-0.09,0.367-0.403,0.563-0.76,0.646c-0.391,0.102-0.521,0.324-0.619,0.723
		c-0.287,1.172-0.131,2.334-0.041,3.5c0.002,0.021,0.002,0.037,0.008,0.057l0.984,3.314c0.207,0.645,0.618,1.174,1.17,1.563
		c0.754,0.539,1.277,1.252,1.707,2.061l0.813,1.5c0.224,0.529,0.688,0.922,1.252,1.047c0.733,0.188,1.33,0.604,1.722,1.293
		l0.012,0.016L76.014,79.32z M57.056,92.262c-0.26-0.211-0.518-0.387-0.73-0.604c-0.235-0.25-0.485-0.516-0.629-0.814
		c-0.287-0.607-0.115-1.201,0.395-1.635c0.83-0.709,2.463-0.793,3.367-0.172c0.63,0.438,0.807,1.17,0.375,1.838
		c-0.192,0.297-0.502,0.52-0.775,0.76c-0.13,0.115-0.297,0.189-0.497,0.316l0.606,0.445c0.287,0.254,0.6,0.496,0.822,0.803
		c0.594,0.813,0.391,1.82-0.475,2.328c-1.004,0.588-2.066,0.631-3.107,0.104c-1.07-0.537-1.229-1.721-0.369-2.555
		C56.335,92.789,56.686,92.555,57.056,92.262L57.056,92.262L57.056,92.262z M57.499,92.541c-0.449,0.318-0.776,0.654-0.965,1.105
		c-0.295,0.703,0.01,1.334,0.735,1.457c0.399,0.063,0.804,0.063,1.197,0.016c0.453-0.049,0.817-0.396,0.888-0.848
		c0.083-0.48-0.119-0.822-0.523-1.047L57.499,92.541L57.499,92.541z M57.813,89.072l-0.63,0.1c-0.646,0.16-0.903,0.68-0.573,1.26
		c0.178,0.313,0.45,0.58,0.735,0.805c0.677,0.533,1.01,0.479,1.535-0.223c0.087-0.117,0.165-0.246,0.22-0.381
		c0.313-0.764-0.01-1.344-0.827-1.494l-0.46-0.063V89.072z M63.934,91.949l0.817,0.607c0.231,0.207,0.47,0.42,0.644,0.674
		c0.535,0.77,0.367,1.68-0.388,2.229c-0.896,0.656-2.473,0.688-3.394,0.078c-0.856-0.572-1-1.619-0.284-2.365
		c0.313-0.324,0.698-0.584,1.101-0.916l-0.753-0.613c-0.399-0.33-0.68-0.711-0.712-1.25c-0.041-0.43,0.127-0.852,0.452-1.131
		c0.821-0.764,2.539-0.863,3.449-0.203c0.601,0.438,0.762,1.207,0.329,1.852c-0.188,0.277-0.48,0.492-0.741,0.719
		C64.318,91.742,64.148,91.828,63.934,91.949L63.934,91.949L63.934,91.949z M63.309,95.178c0.131-0.014,0.354-0.01,0.563-0.059
		c0.438-0.102,0.76-0.355,0.856-0.816c0.101-0.473-0.096-0.826-0.494-1.061l-1.221-0.617c-0.078-0.035-0.229-0.02-0.3,0.035
		c-0.38,0.295-0.714,0.639-0.854,1.109c-0.196,0.707,0.134,1.229,0.861,1.354c0.164,0.025,0.325,0.025,0.582,0.052l0,0
		L63.309,95.178z M64.594,90.135c0.012-0.465-0.229-0.852-0.689-0.936c-0.4-0.076-0.842-0.1-1.244-0.035
		c-0.77,0.113-1.018,0.721-0.613,1.383c0.285,0.475,0.732,0.76,1.203,1.02c0.082,0.045,0.218,0.055,0.313,0.021
		C64.064,91.421,64.579,90.686,64.594,90.135L64.594,90.135L64.594,90.135z M65.688,96.471l1.41-0.252
		c1.885-0.398,2.53-1.916,2.692-3.16c0.015-0.104-0.013-0.211-0.021-0.352l-0.381,0.146c-0.771,0.346-1.541,0.281-2.313,0.021
		c-0.41-0.133-0.736-0.446-0.889-0.854c-0.24-0.633-0.316-1.287-0.104-1.938c0.223-0.67,0.657-1.146,1.354-1.338
		c1.566-0.43,2.938,0.156,3.271,1.896c0.254,1.313,0.159,2.594-0.33,3.84c-0.518,1.313-1.576,1.922-2.896,2.176
		c-0.319,0.064-0.653,0.072-0.981,0.097c-0.26,0.017-0.504-0.054-0.813-0.278l0,0V96.471z M69.745,91.227l-0.101-0.76
		c-0.022-0.143-0.078-0.279-0.141-0.414c-0.258-0.572-0.729-0.83-1.43-0.781c-0.555,0.021-1.021,0.402-1.154,0.938
		c-0.188,0.652-0.098,1.283,0.354,1.809c0.431,0.492,1.011,0.42,1.58,0.271l0.16-0.039c0.656-0.201,0.758-0.336,0.729-1.019
		L69.745,91.227L69.745,91.227z M54.745,95.586c-0.399,0.602-0.942,0.313-1.394,0.375c-0.269,0.035-0.521-0.021-0.583-0.355
		c0.16-0.174,0.383-0.314,0.458-0.52c0.093-0.246,0.075-0.539,0.082-0.813l-0.004-1.432c-0.007-0.184-0.083-0.357-0.14-0.578
		c0.033-0.1,0.132-0.264,0.138-0.43v-1.813c-0.011-0.43-0.181-0.545-0.604-0.463l-0.492,0.1c-0.098-0.221-0.086-0.414,0.113-0.49
		c0.555-0.215,1.123-0.406,1.779-0.459l0.03,0.602l0.007,2.369c0.003,0.199,0.07,0.398,0.123,0.688
		c-0.023,0.063-0.116,0.223-0.12,0.385l-0.01,1.929c-0.011,0.416,0.214,0.678,0.614,0.897l0,0L54.745,95.586z"/>
</g>
<link  type="text/css" rel="stylesheet"></link>
<link  type="text/css" rel="stylesheet"></link>
</svg>
